<svg width="225" height="100" viewBox="0 0 225 100" fill="none" xmlns="http://www.w3.org/2000/svg">
<path d="M47.9924 44.2326C47.9924 46.3902 47.4024 48.413 46.2225 50.3009C45.0425 52.1551 43.4749 53.6384 41.5196 54.751C39.598 55.8298 37.5752 56.3692 35.4513 56.3692C34.8782 56.3692 34.4568 56.3523 34.1871 56.3186V58.4425C34.1871 61.6789 34.2377 65.185 34.3388 68.9608C34.0017 68.9608 33.5297 69.0114 32.9229 69.1125C32.6869 69.1462 32.1643 69.1968 31.3552 69.2642C30.5798 69.3654 29.8382 69.4159 29.1302 69.4159C27.6131 69.4159 26.1466 69.3316 24.7307 69.1631C24.7307 68.6911 24.6633 68.4046 24.5284 68.3034C24.3936 68.2023 24.1239 68.1517 23.7193 68.1517C23.5845 64.8816 23.5171 59.1167 23.5171 50.8572V44.7383C23.5171 39.0746 23.4665 34.9785 23.3654 32.4501C25.9275 31.7421 28.5571 31.3881 31.2541 31.3881C34.0522 31.3881 36.6818 31.8601 39.1428 32.8041C41.6376 33.7143 43.694 35.1302 45.3122 37.0519C46.9304 38.9735 47.8238 41.3502 47.9924 44.1821V44.2326ZM46.4753 43.1707C46.2731 39.26 44.7054 36.4113 41.7724 34.6246C38.8394 32.8041 35.3165 31.8938 31.2035 31.8938C28.8099 31.8938 26.3658 32.2141 23.871 32.8546C24.0059 36.6305 24.0733 42.6144 24.0733 50.8066V59.7067C24.0733 62.5386 24.1239 65.2019 24.225 67.6966C25.1353 67.8314 26.4332 67.8989 28.1188 67.8989C30.3439 67.8989 31.8609 67.764 32.67 67.4943L32.8217 67.3932C32.7206 64.1231 32.67 61.0215 32.67 58.0885V56.1163C32.67 55.4758 32.6532 55.0038 32.6195 54.7004C33.2263 54.8015 33.8331 54.8521 34.4399 54.8521C36.3278 54.8521 38.1989 54.3633 40.0531 53.3856C41.941 52.4079 43.4749 51.0763 44.6548 49.3907C45.8685 47.705 46.4753 45.8846 46.4753 43.9292V43.1707ZM39.1934 43.9798C39.1934 45.4631 38.6203 46.4071 37.4741 46.8116C36.3616 47.2162 34.8613 47.4353 32.9734 47.469L31.8609 47.5196H31.7092C31.4395 46.6768 31.3047 45.2946 31.3047 43.373C31.3047 41.7885 31.2878 40.6422 31.2541 39.9343C31.4564 39.732 32.1643 39.6309 33.378 39.6309C35.0636 39.6309 36.4795 40.1028 37.6258 41.0468C38.1315 41.3502 38.5192 41.7716 38.7889 42.311C39.0586 42.8167 39.1934 43.373 39.1934 43.9798ZM34.3894 41.1479C33.7488 41.1479 33.2094 41.2154 32.7712 41.3502C32.8049 41.8559 32.8217 42.5807 32.8217 43.5247V44.9912V45.8508C32.8217 46.3565 32.8554 46.7274 32.9229 46.9634H33.1757C34.7939 46.9634 36.1087 46.7779 37.1201 46.4071C38.1652 46.0025 38.6877 45.1766 38.6877 43.9292C38.6877 42.9516 38.2495 42.2436 37.3729 41.8053C36.4964 41.3671 35.5019 41.1479 34.3894 41.1479ZM71.6116 44.2326C71.6116 46.3902 71.0216 48.413 69.8417 50.3009C68.6618 52.1551 67.0941 53.6384 65.1388 54.751C63.2172 55.8298 61.1944 56.3692 59.0705 56.3692C58.4974 56.3692 58.076 56.3523 57.8063 56.3186V58.4425C57.8063 61.6789 57.8569 65.185 57.958 68.9608C57.6209 68.9608 57.1489 69.0114 56.5421 69.1125C56.3061 69.1462 55.7836 69.1968 54.9744 69.2642C54.1991 69.3654 53.4574 69.4159 52.7494 69.4159C51.2324 69.4159 49.7659 69.3316 48.3499 69.1631C48.3499 68.6911 48.2825 68.4046 48.1477 68.3034C48.0128 68.2023 47.7431 68.1517 47.3386 68.1517C47.2037 64.8816 47.1363 59.1167 47.1363 50.8572V44.7383C47.1363 39.0746 47.0857 34.9785 46.9846 32.4501C49.5467 31.7421 52.1763 31.3881 54.8733 31.3881C57.6715 31.3881 60.301 31.8601 62.7621 32.8041C65.2568 33.7143 67.3133 35.1302 68.9315 37.0519C70.5497 38.9735 71.443 41.3502 71.6116 44.1821V44.2326ZM70.0945 43.1707C69.8923 39.26 68.3246 36.4113 65.3916 34.6246C62.4586 32.8041 58.9357 31.8938 54.8227 31.8938C52.4292 31.8938 49.985 32.2141 47.4903 32.8546C47.6251 36.6305 47.6925 42.6144 47.6925 50.8066V59.7067C47.6925 62.5386 47.7431 65.2019 47.8442 67.6966C48.7545 67.8314 50.0524 67.8989 51.738 67.8989C53.9631 67.8989 55.4801 67.764 56.2892 67.4943L56.4409 67.3932C56.3398 64.1231 56.2892 61.0215 56.2892 58.0885V56.1163C56.2892 55.4758 56.2724 55.0038 56.2387 54.7004C56.8455 54.8015 57.4523 54.8521 58.0591 54.8521C59.9471 54.8521 61.8181 54.3633 63.6723 53.3856C65.5602 52.4079 67.0941 51.0763 68.2741 49.3907C69.4877 47.705 70.0945 45.8846 70.0945 43.9292V43.1707ZM62.8126 43.9798C62.8126 45.4631 62.2395 46.4071 61.0933 46.8116C59.9808 47.2162 58.4806 47.4353 56.5927 47.469L55.4801 47.5196H55.3284C55.0587 46.6768 54.9239 45.2946 54.9239 43.373C54.9239 41.7885 54.907 40.6422 54.8733 39.9343C55.0756 39.732 55.7836 39.6309 56.9972 39.6309C58.6828 39.6309 60.0988 40.1028 61.245 41.0468C61.7507 41.3502 62.1384 41.7716 62.4081 42.311C62.6778 42.8167 62.8126 43.373 62.8126 43.9798ZM58.0086 41.1479C57.368 41.1479 56.8286 41.2154 56.3904 41.3502C56.4241 41.8559 56.4409 42.5807 56.4409 43.5247V44.9912V45.8508C56.4409 46.3565 56.4747 46.7274 56.5421 46.9634H56.7949C58.4131 46.9634 59.7279 46.7779 60.7393 46.4071C61.7844 46.0025 62.3069 45.1766 62.3069 43.9292C62.3069 42.9516 61.8687 42.2436 60.9921 41.8053C60.1156 41.3671 59.1211 41.1479 58.0086 41.1479ZM94.4723 69.1631C93.1912 69.3991 91.5224 69.5171 89.466 69.5171C88.05 69.5171 87.0218 69.5339 86.3813 69.5676L86.2296 68.5057C85.825 68.5057 85.5385 68.5225 85.3699 68.5563C85.1339 66.7695 84.9822 64.1905 84.9148 60.8192C84.8473 58.3582 84.7631 56.5377 84.6619 55.3578C83.9202 55.2904 83.4651 55.2566 83.2966 55.2566C82.3189 55.2566 81.4255 55.3409 80.6164 55.5095C80.5827 56.0152 80.5658 56.8411 80.5658 57.9874L80.6164 61.0215C80.6501 61.6957 80.667 62.6903 80.667 64.0051C80.667 66.129 80.549 67.7809 80.313 68.9608C79.7062 69.3316 78.8802 69.5171 77.8351 69.5171C77.4306 69.5171 76.8238 69.4834 76.0146 69.4159C75.2055 69.3485 74.6661 69.3148 74.3964 69.3148C73.7896 69.3148 73.1659 69.4834 72.5254 69.8205L72.4243 68.4046C72.1208 68.472 71.8174 68.6068 71.514 68.8091C71.3117 66.4155 71.1263 62.0329 70.9578 55.6612C70.7892 49.2558 70.7049 43.4067 70.7049 38.1138C70.7049 35.2482 70.7218 33.2761 70.7555 32.1973L71.514 32.1467C71.986 32.2478 72.4411 32.2984 72.8794 32.2984C73.2165 32.2984 73.7896 32.2647 74.5987 32.1973C75.5427 32.1298 76.2843 32.0961 76.8238 32.0961C77.2283 32.0961 77.5654 32.1804 77.8351 32.349C78.1048 32.4838 78.2902 32.7704 78.3914 33.2086C78.5937 33.2423 78.7622 33.2761 78.8971 33.3098C79.0656 33.3435 79.2005 33.3772 79.3016 33.4109C79.4365 34.5908 79.5376 36.3102 79.605 38.5689C79.7399 41.7716 79.959 44.1821 80.2624 45.8003H80.8187C81.8638 45.8003 82.8077 45.7328 83.6505 45.598H84.0045C84.2068 43.1707 84.3079 40.7771 84.3079 38.4172C84.3079 35.7876 84.2574 33.7986 84.1562 32.4501C85.7744 31.9781 87.7129 31.7421 89.9717 31.7421H90.6796C91.219 31.7421 91.691 31.7758 92.0955 31.8433V32.8041C92.5001 32.8041 92.8372 32.8209 93.1069 32.8546L94.4723 69.1631ZM91.5899 32.2984C91.219 32.2647 90.6796 32.2478 89.9717 32.2478C87.7803 32.2478 86.0104 32.4501 84.6619 32.8546C84.7631 34.8774 84.8136 36.7484 84.8136 38.4678C84.8136 40.9288 84.6956 43.4572 84.4596 46.0531H84.4091C83.2291 46.2217 82.0661 46.306 80.9198 46.306C80.1107 46.306 79.4533 46.2385 78.9476 46.1037H78.8971C78.5937 44.5192 78.3745 42.1256 78.2397 38.9229C78.1723 36.563 78.0374 34.5234 77.8351 32.8041C77.3969 32.6692 76.79 32.6018 76.0146 32.6018L74.6493 32.6524L72.9805 32.7535L72.5254 32.8041C72.1546 32.8041 71.7837 32.7535 71.4129 32.6524L71.2612 32.7029C71.2275 33.7817 71.2106 35.5854 71.2106 38.1138C71.2106 43.4741 71.278 49.1884 71.4129 55.2566C71.5814 61.3249 71.7669 65.5558 71.9691 67.9494C72.2051 67.8146 72.576 67.7472 73.0817 67.7472C73.4862 67.7472 74.093 67.7809 74.9021 67.8483C75.6101 67.9494 76.2843 68 76.9249 68C77.3969 68 77.7677 67.9831 78.0374 67.9494C78.3408 67.9157 78.6105 67.8146 78.8465 67.646C79.0151 66.4661 79.0993 65.0164 79.0993 63.2971C79.0993 61.9823 79.0825 60.9878 79.0488 60.3135L78.9982 57.3805C78.9982 56.3017 79.0488 55.2061 79.1499 54.0936C80.0602 53.8576 81.0884 53.7396 82.2346 53.7396C83.01 53.7396 83.9371 53.8239 85.0159 53.9924L85.0665 54.043C85.235 55.4252 85.353 57.6165 85.4205 60.6169C85.4205 63.7185 85.5553 66.1795 85.825 68H85.8756C86.1453 67.9663 86.6341 67.9494 87.3421 67.9494H89.1626C90.7133 67.9494 91.9776 67.8651 92.9552 67.6966L91.5899 32.2984ZM116.673 69.4159C115.325 69.6519 114.246 69.7699 113.437 69.7699C111.886 69.7699 110.369 69.6013 108.886 69.2642C108.751 68.8597 108.633 68.6068 108.532 68.5057C108.43 68.4046 108.312 68.3371 108.178 68.3034C108.043 68.3034 107.942 68.2866 107.874 68.2528C107.605 67.41 107.234 66.0447 106.762 64.1568C106.492 63.0443 106.256 62.2352 106.054 61.7295C105.885 61.2238 105.7 60.9709 105.497 60.9709C105.228 60.9709 104.992 60.9878 104.79 61.0215C104.621 61.0215 104.385 61.0215 104.082 61.0215C103.846 61.662 103.61 62.6903 103.374 64.1062C103.104 65.421 102.868 66.4661 102.666 67.2415C102.463 68.0169 102.177 68.7585 101.806 69.4665C101.705 69.4665 101.553 69.4834 101.351 69.5171C101.182 69.5508 100.963 69.5676 100.693 69.5676C100.323 69.5339 99.5472 69.5171 98.3673 69.5171L96.1928 69.4665L93.5127 69.4159L93.6644 68.4046H92.5013L93.2092 64.6625C94.1532 59.201 95.1814 53.8239 96.2939 48.531C97.4065 43.2044 98.8055 37.743 100.491 32.1467C101.098 32.0793 101.452 32.0455 101.553 32.0455C101.688 32.0455 102.126 32.0624 102.868 32.0961C103.61 32.1298 105.16 32.0287 107.52 31.7927C107.655 32.3658 107.739 32.7366 107.773 32.9052L108.532 32.8041C108.835 34.5234 109.897 39.1758 111.717 46.7611C112.392 49.5255 112.746 50.992 112.779 51.1606L116.673 69.4159ZM107.116 32.349C105.632 32.4838 104.166 32.5512 102.716 32.5512H101.654C101.25 32.5512 100.997 32.5681 100.896 32.6018C99.2775 38.0295 97.929 43.3055 96.8502 48.4299C95.8051 53.5542 94.76 59.0156 93.7149 64.8142C93.6138 65.4547 93.5127 66.0615 93.4115 66.6346C93.3104 67.174 93.2261 67.5954 93.1587 67.8989L93.2598 67.9494H94.4735L98.4684 68C98.8055 68.0337 99.2101 68.0506 99.6821 68.0506C100.053 68.0506 100.272 68.0337 100.339 68L100.491 67.9494C100.795 67.4437 101.031 66.8369 101.199 66.129C101.368 65.421 101.553 64.477 101.755 63.2971C102.093 61.4092 102.413 60.145 102.716 59.5044C103.087 59.5044 103.39 59.5044 103.626 59.5044C103.862 59.4707 104.048 59.4539 104.183 59.4539H104.84L105.851 59.555C106.121 60.1618 106.391 61.0046 106.661 62.0834C106.964 63.1622 107.149 63.8365 107.217 64.1062C107.554 65.6907 107.891 66.9212 108.228 67.7977H108.279C109.594 68.1011 110.976 68.2528 112.425 68.2528C113.268 68.2528 114.145 68.1686 115.055 68V67.9494L111.262 50.2503L107.116 32.349ZM102.362 53.5373C102.767 50.5369 102.952 49.1715 102.918 49.4412C103.188 47.1825 103.407 45.5474 103.576 44.5361C103.778 43.491 103.98 42.9684 104.183 42.9684C104.419 42.9684 104.672 43.7607 104.941 45.3452C105.245 46.9296 105.632 49.6604 106.104 53.5373L103.576 53.5879L102.362 53.5373ZM104.84 47.2668L104.031 53.0316H105.497L104.84 47.2668ZM134.407 33.8155C134.475 34.9617 134.509 35.9731 134.509 36.8496C134.509 38.4004 134.374 40.2208 134.104 42.311C133.025 42.1425 132.25 42.0582 131.778 42.0582C130.868 42.0582 129.62 42.1087 128.036 42.2099H127.783C127.749 42.5133 127.732 43.4067 127.732 44.89C127.732 48.0927 127.85 56.1837 128.086 69.1631C127.311 69.2979 126.249 69.3654 124.901 69.3654H123.434C121.546 69.3654 120.08 69.4496 119.035 69.6182C118.933 69.4496 118.849 69.0788 118.782 68.5057L118.023 68.6068C117.855 68.3034 117.77 67.6629 117.77 66.6852L117.821 58.9482C117.821 54.1273 117.669 48.531 117.366 42.1593C117.096 42.1256 116.675 42.1087 116.102 42.1087C115.899 42.1087 115.528 42.1087 114.989 42.1087C114.483 42.1087 114.011 42.0919 113.573 42.0582C113.169 42.0245 112.781 41.9402 112.41 41.8053C112.376 41.7379 112.343 41.6368 112.309 41.5019C112.309 41.3671 112.241 41.2491 112.107 41.1479C111.972 41.0468 111.736 40.9288 111.399 40.794C111.297 40.558 111.196 39.9511 111.095 38.9735C111.028 37.9958 110.994 36.9339 110.994 35.7876C110.994 33.9672 111.011 32.6692 111.045 31.8938C113.169 31.8938 114.77 31.877 115.849 31.8433L120.703 31.7927C125.592 31.7927 129.671 31.9781 132.941 32.349L133.396 32.8041V33.3098L133.952 33.3603L134.407 33.8155ZM111.55 32.3995L111.601 32.5007C111.533 32.9389 111.5 33.5795 111.5 34.4223C111.5 38.0969 111.601 40.1028 111.803 40.44C111.972 40.5074 112.494 40.5411 113.371 40.5411C114.551 40.5411 115.478 40.5748 116.152 40.6422C116.826 40.676 117.399 40.8108 117.871 41.0468L117.922 41.0974C118.192 47.2331 118.327 53.3013 118.327 59.3022C118.327 61.898 118.293 64.1399 118.225 66.0278V67.5449L118.276 68.0506C118.883 67.9494 119.54 67.8989 120.248 67.8989H122.372C124.361 67.8989 125.76 67.8314 126.569 67.6966V67.5954C126.333 54.6498 126.215 46.7442 126.215 43.8787V42.0582C126.215 41.3839 126.249 40.9794 126.316 40.8445L126.367 40.6928H126.519C128.272 40.5917 129.654 40.5411 130.665 40.5411C131.474 40.5411 132.149 40.5917 132.688 40.6928C132.89 39.2095 132.992 37.5913 132.992 35.8382C132.992 35.1302 132.958 34.1357 132.89 32.8546C129.553 32.5175 125.49 32.349 120.703 32.349L111.55 32.3995ZM132.146 68.4551H131.286C131.151 67.6123 131.084 66.5841 131.084 65.3704L131.134 63.0948C131.168 62.7577 131.185 62.3194 131.185 61.78C132.129 61.3755 133.444 61.1732 135.129 61.1732C136.41 61.1732 137.489 61.3755 138.366 61.78L138.467 62.488C138.568 62.5217 138.72 62.5554 138.922 62.5891C139.124 62.6228 139.259 62.724 139.326 62.8925C139.428 63.0274 139.478 63.2802 139.478 63.6511C139.478 64.2916 139.428 65.2693 139.326 66.5841C139.225 67.8651 139.141 68.8428 139.074 69.5171L132.297 69.4665L132.146 68.4551ZM137.708 67.8989C137.708 67.4269 137.759 66.3649 137.86 64.713C137.961 63.0611 138.012 62.1509 138.012 61.9823C137.573 61.78 136.613 61.6789 135.129 61.6789C133.41 61.6789 132.264 61.8137 131.691 62.0834C131.691 62.488 131.674 62.842 131.64 63.1454L131.589 65.6233C131.589 66.8032 131.64 67.5786 131.741 67.9494L131.893 68H137.708V67.8989ZM174.545 51.6663L175.961 68.1011L173.129 68.8091C172.253 68.3708 171.359 67.7809 170.449 67.0392C169.539 66.2638 168.797 65.3367 168.224 64.2579L169.337 51.0089L168.831 39.4792L159.981 66.3312L158.11 66.9381C155.953 65.6907 154.284 63.9039 153.104 61.5778L149.21 40.7434L147.845 51.6663L147.39 68.1011L144.457 68.8091C142.704 67.9326 141.237 66.4155 140.057 64.2579L142.94 51.0089L144.356 38.1138L140.108 38.2655C139.636 37.4564 139.366 36.5293 139.299 35.4842C139.265 34.4054 139.366 33.4446 139.602 32.6018H146.935C147.44 32.8378 148.047 33.2086 148.755 33.7143C149.497 34.22 150.239 34.7594 150.98 35.3325C151.756 35.9056 152.413 36.445 152.952 36.9507L157.959 57.9368L166.707 33.2592L168.174 32.2478C168.544 32.3152 169.084 32.5007 169.792 32.8041C170.534 33.1075 171.258 33.4446 171.966 33.8155C172.674 34.1863 173.18 34.5403 173.483 34.8774L174.545 51.6663ZM198.476 60.6169L199.74 63.1454C199.268 64.1568 198.611 65.1681 197.768 66.1795C196.925 67.1572 196.049 68.0337 195.138 68.8091L179.108 67.4943L176.933 68.8091C175.518 68.3034 174.422 67.5449 173.647 66.5335L175.619 51.0089L175.012 32.6018L176.478 31.5904C176.849 31.6578 177.372 31.8601 178.046 32.1973C178.754 32.5007 179.411 32.8378 180.018 33.2086L194.885 31.5904C195.829 32.1635 196.655 32.8209 197.363 33.5626C198.105 34.3043 198.796 35.1302 199.437 36.0405L198.729 38.7712L181.232 38.3161L180.928 48.0759L192.306 46.4071C193.385 46.9802 194.279 47.5702 194.987 48.177C195.728 48.7838 196.352 49.5255 196.858 50.402L196.099 53.335L180.827 52.8293V62.7408L198.476 60.6169Z" fill="#071F43"/>
</svg>
