<svg viewBox="0 0 204 204" fill="none" xmlns="http://www.w3.org/2000/svg">
    <rect width="204" height="204" rx="102" fill="url(#paint0_linear_115_6842)"/>
    <path d="M109.587 114.501H90.6448V102.554H109.587C112.514 102.554 114.897 102.077 116.735 101.124C118.573 100.137 119.918 98.7753 120.769 97.0393C121.62 95.3034 122.045 93.3462 122.045 91.1677C122.045 88.9552 121.62 86.8959 120.769 84.9897C119.918 83.0836 118.573 81.5519 116.735 80.3945C114.897 79.2372 112.514 78.6586 109.587 78.6586H95.9548V141H80.6375V66.66H109.587C115.408 66.66 120.394 67.7152 124.547 69.8256C128.734 71.902 131.933 74.7782 134.146 78.4544C136.358 82.1305 137.465 86.3343 137.465 91.0656C137.465 95.865 136.358 100.018 134.146 103.524C131.933 107.03 128.734 109.736 124.547 111.642C120.394 113.548 115.408 114.501 109.587 114.501Z" fill="white"/>
    <defs>
        <linearGradient id="paint0_linear_115_6842" x1="102" y1="0" x2="102" y2="204" gradientUnits="userSpaceOnUse">
        <stop stop-color="#0F346B"/>
        <stop offset="1" stop-color="#071F43"/>
        </linearGradient>
    </defs>
</svg>
